P2
84 14
255
0 0 0 0 0 0 0 0 0 0 0 0 0 0 0 0 0 0 0 0 0 0 0 0 0 0 0 0 0 0 0 0 0 0 0 0 0 0 0 0 0 0 0 0 0 0 0 0 0 0 0 0 0 0 0 0 0 0 0 0 0 0 0 0 0 0 0 0 0 0 0 0 0 0 0 0 0 0 0 0 0 0 0 0 0 0 0 0 0 0 0 0 0 0 0 0 0 0 0 0 0 0 0 0 0 0 0 0 0 0 0 0 0 0 0 0 0 0 0 0 0 0 0 0 0 0 0 0 0 0 0 0 0 0 0 0 0 0 0 0 0 0 0 0 0 0 0 0 0 0 0 0 0 0 0 0 0 0 0 0 0 0 0 0 0 0 0 0 0 0 076 076 076 076 076 076 076 076 076 076 149 149 149 149 149 149 149 149 149 149 029 029 029 029 029 029 029 029 029 029 255 255 255 255 255 255 255 255 255 255 0 0 0 0 0 0 0 0 0 0 225 225 225 225 225 225 225 225 225 225 105 105 105 105 105 105 105 105 105 105 178 178 178 178 178 178 178 178 178 178 0 0 0 0 076 076 076 076 076 076 076 076 076 076 149 149 149 149 149 149 149 149 149 149 029 029 029 029 029 029 029 029 029 029 255 255 255 255 255 255 255 255 255 255 0 0 0 0 0 0 0 0 0 0 225 225 225 225 225 225 225 225 225 225 105 105 105 105 105 105 105 105 105 105 178 178 178 178 178 178 178 178 178 178 0 0 0 0 076 076 076 076 076 076 076 076 076 076 149 149 149 149 149 149 149 149 149 149 029 029 029 029 029 029 029 029 029 029 255 255 255 255 255 255 255 255 255 255 0 0 0 0 0 0 0 0 0 0 225 225 225 225 225 225 225 225 225 225 105 105 105 105 105 105 105 105 105 105 178 178 178 178 178 178 178 178 178 178 0 0 0 0 076 076 076 076 076 076 076 076 076 076 149 149 149 149 149 149 149 149 149 149 029 029 029 029 029 029 029 029 029 029 255 255 255 255 255 255 255 255 255 255 0 0 0 0 0 0 0 0 0 0 225 225 225 225 225 225 225 225 225 225 105 105 105 105 105 105 105 105 105 105 178 178 178 178 178 178 178 178 178 178 0 0 0 0 076 076 076 076 076 076 076 076 076 076 149 149 149 149 149 149 149 149 149 149 029 029 029 029 029 029 029 029 029 029 255 255 255 255 255 255 255 255 255 255 0 0 0 0 0 0 0 0 0 0 225 225 225 225 225 225 225 225 225 225 105 105 105 105 105 105 105 105 105 105 178 178 178 178 178 178 178 178 178 178 0 0 0 0 076 076 076 076 076 076 076 076 076 076 149 149 149 149 149 149 149 149 149 149 029 029 029 029 029 029 029 029 029 029 255 255 255 255 255 255 255 255 255 255 0 0 0 0 0 0 0 0 0 0 225 225 225 225 225 225 225 225 225 225 105 105 105 105 105 105 105 105 105 105 178 178 178 178 178 178 178 178 178 178 0 0 0 0 076 076 076 076 076 076 076 076 076 076 149 149 149 149 149 149 149 149 149 149 029 029 029 029 029 029 029 029 029 029 255 255 255 255 255 255 255 255 255 255 0 0 0 0 0 0 0 0 0 0 225 225 225 225 225 225 225 225 225 225 105 105 105 105 105 105 105 105 105 105 178 178 178 178 178 178 178 178 178 178 0 0 0 0 076 076 076 076 076 076 076 076 076 076 149 149 149 149 149 149 149 149 149 149 029 029 029 029 029 029 029 029 029 029 255 255 255 255 255 255 255 255 255 255 0 0 0 0 0 0 0 0 0 0 225 225 225 225 225 225 225 225 225 225 105 105 105 105 105 105 105 105 105 105 178 178 178 178 178 178 178 178 178 178 0 0 0 0 076 076 076 076 076 076 076 076 076 076 149 149 149 149 149 149 149 149 149 149 029 029 029 029 029 029 029 029 029 029 255 255 255 255 255 255 255 255 255 255 0 0 0 0 0 0 0 0 0 0 225 225 225 225 225 225 225 225 225 225 105 105 105 105 105 105 105 105 105 105 178 178 178 178 178 178 178 178 178 178 0 0 0 0 076 076 076 076 076 076 076 076 076 076 149 149 149 149 149 149 149 149 149 149 029 029 029 029 029 029 029 029 029 029 255 255 255 255 255 255 255 255 255 255 0 0 0 0 0 0 0 0 0 0 225 225 225 225 225 225 225 225 225 225 105 105 105 105 105 105 105 105 105 105 178 178 178 178 178 178 178 178 178 178 0 0 0 0 0 0 0 0 0 0 0 0 0 0 0 0 0 0 0 0 0 0 0 0 0 0 0 0 0 0 0 0 0 0 0 0 0 0 0 0 0 0 0 0 0 0 0 0 0 0 0 0 0 0 0 0 0 0 0 0 0 0 0 0 0 0 0 0 0 0 0 0 0 0 0 0 0 0 0 0 0 0 0 0 0 0 0 0 0 0 0 0 0 0 0 0 0 0 0 0 0 0 0 0 0 0 0 0 0 0 0 0 0 0 0 0 0 0 0 0 0 0 0 0 0 0 0 0 0 0 0 0 0 0 0 0 0 0 0 0 0 0 0 0 0 0 0 0 0 0 0 0 0 0 0 0 0 0 0 0 0 0 0 0 0 0 0 0 0 0 